# xmcd CD database file
#
# Track frame offsets:
#	150
#	12613
#	24107
#	39024
#	50040
#	64304
#	75703
#	92014
#	106625
#	121380
#	132508
#	145378
#
# Disc length: 2092 seconds
#
# Revision: 3
# Processed by: cddbd v1.5.2PL0 Copyright (c) Steve Scherf et al.
# Submitted via: CDex 1.51
#
DISCID=9b082a0c
DTITLE=Marion Maerz - Burt Bacharach Songbook
DYEAR=1971
DGENRE=Schlager
TTITLE0=Warten und Hoffen (Wishin' And Hopin')
TTITLE1=Frag doch nur dein Herz (Trains and Boots and Planes)
TTITLE2=So wie ich (Close To You)
TTITLE3=Nimm nicht alles so schwer (Don't Go Breaking My Heart)
TTITLE4=Wenn ich die Regentropfen seh' (Raindrops Keep Falling On My Head)
TTITLE5=Alles ist nun vorbei (Anyone Who Had A Heart)
TTITLE6=Ein Haus ist kein Zuhaus (A House In Not A Home)
TTITLE7=Einsame Träume (Odds And Ends)
TTITLE8=Das Ende der Reise (24 Hours From Tulsa)
TTITLE9=Geh vorbei (Walk On By)
TTITLE10=Ich wünsche mir so viel von dir (I Say A Little Prayer)
TTITLE11=Auf dieser Erde (All Kinds Of People)
EXTD=YEAR: 1971
EXTT0=
EXTT1=
EXTT2=
EXTT3=
EXTT4=
EXTT5=
EXTT6=
EXTT7=
EXTT8=
EXTT9=
EXTT10=
EXTT11=
PLAYORDER=
